Coordinates
version=1
nRows=38
nColumns=12
inDegrees=yes

Units are S.I. units (second, meters, Newtons, ...)
Angles are in degrees

endheader
time	SC_y	SC_z	SC_x	AC_y	AC_z	AC_x	GH_y	GH_z	GH_yy	EL_x	PS_y
       0.0              -37.61          20.38          13.12          31.59         -8.771         -1.197          137.3          89.09         -33.04          112.1          46.82
   0.03717              -37.61          20.38          13.12          31.59         -8.772           -1.2          137.3          89.09         -33.03          112.1          46.82
   0.07435              -37.62          20.38          13.12          31.59         -8.773         -1.203          137.3          89.09         -33.03          112.1          46.83
    0.1115              -37.62          20.37          13.12          31.59         -8.775         -1.206          137.3          89.09         -33.03          112.1          46.83
    0.1487              -37.62          20.37          13.12          31.59         -8.776         -1.209          137.3          89.09         -33.02          112.1          46.84
    0.1859              -37.63          20.37          13.12          31.59         -8.778         -1.213          137.3          89.09         -33.02          112.1          46.85
     0.223              -37.63          20.36          13.12          31.59         -8.779         -1.216          137.3          89.09         -33.01          112.1          46.85
    0.2602              -37.63          20.36          13.12          31.59         -8.781          -1.22          137.2          89.09         -33.01          112.1          46.86
    0.2974              -37.64          20.35          13.12          31.59         -8.782         -1.225          137.2          89.09          -33.0          112.1          46.87
    0.3346              -37.64          20.35          13.13          31.59         -8.784         -1.229          137.2          89.09          -33.0          112.1          46.87
    0.3717              -37.65          20.34          13.13          31.59         -8.786         -1.234          137.2          89.09         -32.99          112.0          46.88
    0.4089              -37.65          20.33          13.13          31.59         -8.789         -1.239          137.2          89.09         -32.98          112.0          46.89
    0.4461              -37.66          20.33          13.13          31.59         -8.791         -1.245          137.1          89.09         -32.98          112.0           46.9
    0.4832              -37.66          20.32          13.13          31.59         -8.794         -1.251          137.1          89.09         -32.97          112.0          46.91
    0.5204              -37.67          20.31          13.13          31.59         -8.796         -1.258          137.1          89.09         -32.96          112.0          46.93
    0.5576              -37.68           20.3          13.13          31.59         -8.799         -1.265          137.1          89.09         -32.95          112.0          46.94
    0.5948              -37.68          20.29          13.13          31.59         -8.803         -1.273          137.0          89.09         -32.94          111.9          46.95
    0.6319              -37.69          20.28          13.14          31.59         -8.806         -1.282          137.0          89.09         -32.93          111.9          46.97
    0.6691               -37.7          20.27          13.14          31.59          -8.81         -1.291          137.0          89.09         -32.92          111.9          46.98
    0.7063              -37.71          20.26          13.14          31.59         -8.814         -1.301          136.9          89.09          -32.9          111.9           47.0
    0.7435              -37.72          20.25          13.14          31.59         -8.819         -1.312          136.9          89.08         -32.89          111.8          47.02
    0.7806              -37.73          20.23          13.14           31.6         -8.824         -1.325          136.8          89.08         -32.87          111.8          47.04
    0.8178              -37.75          20.22          13.15           31.6          -8.83         -1.338          136.8          89.08         -32.86          111.8          47.07
     0.855              -37.76           20.2          13.15           31.6         -8.836         -1.354          136.7          89.08         -32.84          111.7           47.1
    0.8921              -37.78          20.18          13.15           31.6         -8.843          -1.37          136.6          89.08         -32.82          111.7          47.13
    0.9293              -37.79          20.16          13.16           31.6         -8.851         -1.389          136.5          89.08         -32.79          111.7          47.16
    0.9665              -37.81          20.13          13.16           31.6         -8.859          -1.41          136.5          89.08         -32.77          111.6           47.2
     1.004              -37.84           20.1          13.16           31.6         -8.869         -1.434          136.4          89.07         -32.74          111.5          47.24
     1.041              -37.86          20.07          13.17           31.6          -8.88          -1.46          136.2          89.07          -32.7          111.5          47.29
     1.078              -37.89          20.03          13.18           31.6         -8.893         -1.491          136.1          89.07         -32.66          111.4          47.34
     1.115              -37.92          19.99          13.18          31.61         -8.907         -1.525          136.0          89.07         -32.62          111.3           47.4
     1.152              -37.96          19.94          13.19          31.61         -8.924         -1.565          135.8          89.06         -32.57          111.2          47.47
      1.19              -38.01          19.89           13.2          31.61         -8.943         -1.611          135.6          89.06         -32.51          111.1          47.55
     1.227              -38.06          19.83          13.21          31.61         -8.965         -1.664          135.4          89.05         -32.44          111.0          47.65
     1.264              -38.12          19.75          13.22          31.62         -8.991         -1.727          135.1          89.05         -32.36          110.8          47.76
     1.301              -38.19          19.66          13.24          31.62         -9.021           -1.8          134.8          89.04         -32.27          110.7          47.89
     1.338              -38.27          19.56          13.25          31.63         -9.058         -1.887          134.5          89.03         -32.16          110.4          48.05
     1.375              -38.37          19.43          13.27          31.63         -9.101         -1.992          134.0          89.02         -32.03          110.2          48.23
